Coordinates
version=1
nRows=41
nColumns=38
inDegrees=no

Units are S.I. units (second, meters, Newtons, ...)
If the header above contains a line with 'inDegrees', this indicates whether rotational values are in degrees (yes) or radians (no).

endheader
time	pelvis_tilt	pelvis_list	pelvis_rotation	pelvis_tx	pelvis_ty	pelvis_tz	hip_flexion_r	hip_adduction_r	hip_rotation_r	knee_angle_r	ankle_angle_r	subtalar_angle_r	mtp_angle_r	hip_flexion_l	hip_adduction_l	hip_rotation_l	knee_angle_l	ankle_angle_l	subtalar_angle_l	mtp_angle_l	lumbar_extension	lumbar_bending	lumbar_rotation	arm_flex_r	arm_add_r	arm_rot_r	elbow_flex_r	pro_sup_r	wrist_flex_r	wrist_dev_r	arm_flex_l	arm_add_l	arm_rot_l	elbow_flex_l	pro_sup_l	wrist_flex_l	wrist_dev_l
0	-3.13406	0.922746	1.48756	0.600648	1.58428	1.02654	0.567931	0.0406472	0.021416	0.234836	-0.226973	0	0	0.953572	-0.0951345	-0.306514	0.26049	-0.293547	0	0	0.692912	0.19722	0.406453	-0.568218	-0.29689	-0.225275	0.782454	1.46692	0	0	-0.138586	-0.0508945	-0.490071	0.227636	1.44692	0	0
0.01	-3.13269	0.923908	1.47643	0.599843	1.57478	1.02541	0.558444	0.0456518	0.0265153	0.238874	-0.22398	0	0	0.94891	-0.0974488	-0.314382	0.196366	-0.306216	0	0	0.688156	0.202798	0.4065	-0.562737	-0.304585	-0.224733	0.798119	1.47704	0	0	-0.140253	-0.0451581	-0.499735	0.237807	1.45272	0	0
0.02	-3.13666	0.908997	1.47893	0.599644	1.56578	1.02356	0.565454	0.0439718	0.0291572	0.241157	-0.221206	0	0	0.990278	-0.0902907	-0.314027	0.152667	-0.335012	0	0	0.703132	0.200212	0.401088	-0.557818	-0.307873	-0.225254	0.809488	1.49161	0	0	-0.143869	-0.041817	-0.514667	0.248053	1.46153	0	0
0.03	-3.14119	0.909672	1.47573	0.599275	1.5551	1.02188	0.573763	0.0404522	-0.0073894	0.29126	-0.204869	0	0	0.982909	-0.0852863	-0.328687	0.0844764	-0.350096	0	0	0.699549	0.200938	0.402601	-0.55458	-0.31246	-0.227366	0.824645	1.50414	0	0	-0.146157	-0.0380947	-0.523981	0.257692	1.47153	0	0
0.04	-3.12974	0.92183	1.44427	0.597591	1.54348	1.02018	0.529646	0.0585139	0.0375859	0.243874	-0.208534	0	0	0.932199	-0.104101	-0.32027	0	-0.359519	0	0	0.679327	0.219824	0.410445	-0.554248	-0.321219	-0.230839	0.846578	1.5173	0	0	-0.148621	-0.0313583	-0.531343	0.268918	1.48412	0	0
0.05	-3.12789	0.92203	1.43391	0.59704	1.53277	1.0179	0.529473	0.0610555	0.0194532	0.272456	-0.200801	0	0	0.930076	-0.107563	-0.323867	0	-0.36693	0	0	0.675317	0.225212	0.411236	-0.552167	-0.326839	-0.232773	0.863305	1.5276	0	0	-0.150946	-0.0266369	-0.540419	0.279195	1.48941	0	0
0.06	-3.12373	0.917987	1.42151	0.596457	1.52217	1.01541	0.515655	0.0675727	0.0371005	0.255955	-0.198818	0	0	0.932914	-0.112919	-0.323174	0	-0.371394	0	0	0.676651	0.232613	0.410491	-0.551046	-0.331945	-0.235225	0.879495	1.53876	0	0	-0.15446	-0.0213806	-0.552337	0.289946	1.49231	0	0
0.07	-3.1208	0.914363	1.4111	0.595998	1.51138	1.01279	0.508716	0.0717378	0.0416668	0.257507	-0.195373	0	0	0.936122	-0.117556	-0.321921	0	-0.371968	0	0	0.677722	0.238547	0.409304	-0.549787	-0.336006	-0.238793	0.895254	1.55206	0	0	-0.157986	-0.0157686	-0.565927	0.301408	1.49596	0	0
0.08	-3.1226	0.916022	1.40872	0.596125	1.50014	1.01005	0.528938	0.06558	-0.0203566	0.341181	-0.169793	0	0	0.935204	-0.116161	-0.324047	0	-0.366383	0	0	0.672365	0.238078	0.406803	-0.5471	-0.339	-0.244028	0.911459	1.56801	0	0	-0.160599	-0.00983845	-0.580032	0.314056	1.50167	0	0
0.09	-3.12501	0.916723	1.40654	0.596275	1.48882	1.00743	0.53274	0.0633831	-0.0410896	0.379816	-0.151913	0	0	0.936392	-0.115129	-0.326654	0	-0.356948	0	0	0.668368	0.23765	0.405149	-0.544842	-0.342636	-0.246895	0.926347	1.5708	0	0	-0.162059	-0.00380167	-0.597196	0.324444	1.51221	0	0
0.1	-3.11722	0.909903	1.39039	0.595424	1.47766	1.00535	0.490598	0.0752768	0.0411042	0.28409	-0.178266	0	0	0.947063	-0.126246	-0.318935	0	-0.336926	0	0	0.674583	0.248153	0.405635	-0.545816	-0.344849	-0.25039	0.936947	1.5708	0	0	-0.162398	-0.000194918	-0.605395	0.326577	1.51962	0	0
0.11	-3.11938	0.909117	1.39026	0.595678	1.46602	1.00322	0.484711	0.0720779	0.0414375	0.293478	-0.177031	0	0	0.952241	-0.123819	-0.322051	0	-0.344431	0	0	0.67452	0.246757	0.404328	-0.545159	-0.345974	-0.254092	0.947121	1.5708	0	0	-0.161883	0.00219664	-0.606559	0.329477	1.52011	0	0
0.12	-3.12101	0.908902	1.39108	0.596015	1.45419	1.00125	0.478502	0.0685812	0.0423069	0.303448	-0.17565	0	0	0.959147	-0.121786	-0.319465	0	-0.348146	0	0	0.673977	0.244333	0.402672	-0.545063	-0.345709	-0.259082	0.956114	1.5708	0	0	-0.160675	0.00412375	-0.606598	0.331376	1.51991	0	0
0.13	-3.12225	0.908962	1.39281	0.596463	1.44217	0.999442	0.472622	0.0647975	0.0432847	0.315018	-0.174652	0	0	0.966126	-0.119183	-0.31424	0	-0.351745	0	0	0.672846	0.24094	0.400664	-0.545751	-0.343825	-0.266139	0.964713	1.5708	0	0	-0.158879	0.00568143	-0.605818	0.332279	1.51949	0	0
0.14	-3.12302	0.909285	1.39512	0.596978	1.42987	0.997831	0.466718	0.0608644	0.0439353	0.327578	-0.174337	0	0	0.972274	-0.116071	-0.306543	0	-0.355748	0	0	0.671559	0.236918	0.398636	-0.54767	-0.340184	-0.274728	0.972514	1.5708	0	0	-0.156912	0.00661844	-0.604471	0.332262	1.51893	0	0
0.15	-3.12335	0.909762	1.39751	0.597484	1.41722	0.996402	0.461165	0.056995	0.0436417	0.34162	-0.175232	0	0	0.976764	-0.112893	-0.296993	0	-0.359558	0	0	0.670674	0.23261	0.396723	-0.550837	-0.334972	-0.284109	0.979005	1.5708	0	0	-0.155443	0.00675048	-0.602779	0.3317	1.51846	0	0
0.16	-3.12396	0.910356	1.39978	0.59796	1.40416	0.995121	0.456534	0.0529456	0.0424571	0.358034	-0.177765	0	0	0.97892	-0.10968	-0.286157	0	-0.36222	0	0	0.670512	0.228233	0.395507	-0.554753	-0.328306	-0.294023	0.983329	1.5708	0	0	-0.155087	0.00612466	-0.601362	0.331058	1.51794	0	0
0.17	-3.12585	0.911091	1.40269	0.598442	1.39068	0.993928	0.453856	0.0477611	0.0384162	0.379176	-0.184524	0	0	0.978173	-0.105129	-0.272396	0	-0.36377	0	0	0.671916	0.223555	0.396254	-0.560146	-0.317973	-0.308494	0.985547	1.5708	0	0	-0.155888	0.00448059	-0.599015	0.33028	1.51696	0	0
0.18	-3.12983	0.911617	1.40605	0.598867	1.37679	0.992826	0.453291	0.0415187	0.034443	0.403238	-0.196894	0	0	0.976528	-0.0992267	-0.261371	0.0107771	-0.366036	0	0	0.675333	0.218582	0.399063	-0.566386	-0.306527	-0.32213	0.984716	1.5708	0	0	-0.1583	0.00179553	-0.596425	0.329736	1.51505	0	0
0.19	-3.13577	0.912052	1.40963	0.599193	1.36255	0.991846	0.455022	0.0344707	0.0317387	0.430732	-0.211962	0	0	0.973214	-0.0923742	-0.252583	0.0246197	-0.37477	0	0	0.679664	0.213174	0.402131	-0.571977	-0.296376	-0.330651	0.980931	1.5708	0	0	-0.162586	-0.00164914	-0.595086	0.329924	1.51286	0	0
0.2	3.14015	0.910771	1.4149	0.599514	1.34814	0.991036	0.461258	0.0265185	0.0291445	0.462523	-0.232734	0	0	0.972109	-0.085054	-0.246901	0.0383471	-0.388449	0	0	0.687254	0.206831	0.404294	-0.577106	-0.286033	-0.336605	0.973599	1.5708	0	0	-0.168165	-0.00622554	-0.593611	0.329867	1.51109	0	0
0.21	3.13147	0.907961	1.42227	0.599837	1.33383	0.990469	0.47246	0.0174211	0.0278157	0.498813	-0.258142	0	0	0.973348	-0.0785111	-0.245196	0.0547277	-0.396741	0	0	0.696583	0.19889	0.40494	-0.580397	-0.276161	-0.339527	0.962786	1.5708	0	0	-0.173817	-0.011418	-0.593656	0.329208	1.50977	0	0
0.22	3.1226	0.904557	1.43161	0.600289	1.31979	0.990141	0.487506	0.00716704	0.0271892	0.538318	-0.290792	0	0	0.974836	-0.0723732	-0.242946	0.0722431	-0.398631	0	0	0.705676	0.189176	0.40347	-0.581568	-0.26632	-0.341943	0.949628	1.57063	0	0	-0.178538	-0.0167727	-0.59506	0.327991	1.50921	0	0
0.23	3.11354	0.901716	1.44315	0.600942	1.30606	0.990056	0.504712	-0.00461849	0.0270522	0.579634	-0.333182	0	0	0.975392	-0.0655022	-0.237885	0.0909678	-0.395112	0	0	0.712546	0.177251	0.400151	-0.58081	-0.257521	-0.342255	0.934835	1.56786	0	0	-0.18217	-0.0218779	-0.597536	0.327079	1.50996	0	0
0.24	3.10416	0.899975	1.45706	0.601774	1.29264	0.990166	0.522874	-0.0177158	0.0276606	0.621939	-0.377744	0	0	0.97543	-0.0570955	-0.229731	0.112807	-0.38646	0	0	0.716432	0.162873	0.395392	-0.578381	-0.250068	-0.339596	0.918714	1.5663	0	0	-0.184431	-0.0265062	-0.601542	0.326848	1.51058	0	0
0.25	3.09486	0.898886	1.47278	0.602753	1.27953	0.990387	0.541923	-0.0312437	0.0286649	0.664876	-0.422957	0	0	0.975446	-0.0470284	-0.218013	0.137561	-0.372482	0	0	0.718195	0.146785	0.389464	-0.574525	-0.242941	-0.336633	0.901466	1.56499	0	0	-0.185282	-0.0306194	-0.606844	0.32721	1.51062	0	0
0.26	3.08555	0.898329	1.48934	0.603827	1.26677	0.990627	0.562226	-0.0445503	0.0300858	0.708813	-0.46764	0	0	0.975525	-0.0358904	-0.203606	0.164332	-0.353817	0	0	0.718031	0.130001	0.383035	-0.570048	-0.23644	-0.333357	0.884317	1.56483	0	0	-0.184492	-0.0341837	-0.613352	0.32762	1.51022	0	0
0.27	3.07635	0.898582	1.5052	0.604839	1.25434	0.990819	0.583704	-0.0567668	0.0324493	0.753413	-0.513631	0	0	0.975422	-0.024957	-0.189101	0.192127	-0.332738	0	0	0.715695	0.113722	0.376954	-0.565163	-0.230735	-0.329572	0.867854	1.5651	0	0	-0.182486	-0.0372709	-0.620236	0.328249	1.51029	0	0
0.28	3.06795	0.8999	1.51859	0.605649	1.24222	0.990958	0.605892	-0.0670076	0.0356164	0.797641	-0.56233	0	0	0.974122	-0.0155395	-0.175584	0.218413	-0.311474	0	0	0.711093	0.0992817	0.371465	-0.559899	-0.226873	-0.322562	0.851848	1.56896	0	0	-0.179453	-0.0397154	-0.627302	0.328843	1.51099	0	0
0.29	3.06089	0.902436	1.52823	0.606147	1.23029	0.991141	0.628159	-0.074659	0.0388889	0.839957	-0.616244	0	0	0.970084	-0.00839162	-0.164347	0.240112	-0.290231	0	0	0.704734	0.0876741	0.366852	-0.553896	-0.224692	-0.312724	0.8354	1.5708	0	0	-0.175674	-0.0415036	-0.634597	0.328926	1.5124	0	0
0.3	3.05463	0.906207	1.53405	0.6064	1.21838	0.99148	0.650013	-0.0801233	0.0421618	0.879151	-0.678563	0	0	0.961895	-0.00333894	-0.156492	0.25535	-0.269622	0	0	0.697265	0.0791736	0.363157	-0.547093	-0.224534	-0.299384	0.817976	1.5708	0	0	-0.171761	-0.0427395	-0.643064	0.327666	1.51613	0	0
0.31	3.04854	0.910594	1.53642	0.606396	1.20643	0.991977	0.671764	-0.0833847	0.0473705	0.917208	-0.698132	0	0	0.949642	-0.000117304	-0.152489	0.263881	-0.255029	0	0	0.690177	0.0740111	0.361895	-0.540828	-0.224285	-0.286828	0.800265	1.5708	0	0	-0.168335	-0.0443719	-0.647317	0.3249	1.51973	0	0
0.32	3.04337	0.915315	1.53528	0.606191	1.19443	0.992663	0.693207	-0.0843513	0.0541495	0.953286	-0.698132	0	0	0.934275	0.00133876	-0.153562	0.267695	-0.236541	0	0	0.683179	0.0716331	0.360735	-0.533386	-0.226608	-0.268203	0.7805	1.5708	0	0	-0.165987	-0.0453053	-0.654051	0.322021	1.52506	0	0
0.33	3.03954	0.919169	1.53142	0.605854	1.18241	0.99357	0.714926	-0.0832846	0.0617272	0.985401	-0.698132	0	0	0.917882	0.00148838	-0.160748	0.268973	-0.219904	0	0	0.678623	0.0718475	0.360342	-0.525976	-0.229439	-0.247356	0.758548	1.5708	0	0	-0.164212	-0.0460626	-0.66234	0.317749	1.53054	0	0
0.34	3.03724	0.921723	1.52639	0.605524	1.17042	0.994683	0.73721	-0.0813109	0.0678206	1.01409	-0.694939	0	0	0.902283	0.0011155	-0.171347	0.270372	-0.204665	0	0	0.676962	0.073495	0.359521	-0.519084	-0.23183	-0.226618	0.735516	1.5708	0	0	-0.162781	-0.0469743	-0.671826	0.311764	1.53583	0	0
0.35	3.03669	0.923199	1.52158	0.605315	1.15851	0.99596	0.759973	-0.0793383	0.0708332	1.04199	-0.649928	0	0	0.88796	0.000451453	-0.182487	0.271872	-0.190014	0	0	0.67737	0.0752385	0.356443	-0.511752	-0.23475	-0.202853	0.710975	1.5708	0	0	-0.161675	-0.0476677	-0.686354	0.305154	1.5438	0	0
0.36	3.03822	0.923677	1.51729	0.605312	1.14671	0.997393	0.783076	-0.0777685	0.0702994	1.06677	-0.596191	0	0	0.874569	-8.22456e-05	-0.190702	0.27211	-0.180685	0	0	0.679898	0.077244	0.351538	-0.505578	-0.236402	-0.182255	0.686957	1.5708	0	0	-0.160568	-0.0486288	-0.701746	0.297117	1.55175	0	0
0.37	3.04208	0.923633	1.51276	0.605465	1.13503	0.998937	0.805728	-0.0761718	0.0671997	1.08637	-0.542371	0	0	0.861794	-0.000708104	-0.194147	0.271616	-0.173426	0	0	0.683442	0.0797977	0.345062	-0.500175	-0.237444	-0.163706	0.663267	1.5708	0	0	-0.159373	-0.0494839	-0.718156	0.288327	1.55904	0	0
0.38	3.04763	0.923587	1.50757	0.605677	1.12345	1.00058	0.827423	-0.0741849	0.0628003	1.1003	-0.497153	0	0	0.849049	-0.00166074	-0.194706	0.270579	-0.167767	0	0	0.687044	0.0830515	0.338317	-0.496317	-0.2388	-0.144118	0.641214	1.5708	0	0	-0.158087	-0.0505312	-0.733122	0.27905	1.56444	0	0
0.39	3.05452	0.923691	1.50155	0.605889	1.11199	1.00225	0.848083	-0.0715164	0.0577532	1.10909	-0.454092	0	0	0.83588	-0.00338035	-0.19247	0.268225	-0.163156	0	0	0.689861	0.0868066	0.331149	-0.49337	-0.240281	-0.124924	0.621269	1.5708	0	0	-0.157123	-0.0515032	-0.748215	0.270642	1.57062	0	0
0.4	3.06226	0.923497	1.49502	0.606114	1.10067	1.0039	0.868386	-0.0684047	0.0519956	1.11268	-0.422402	0	0	0.822956	-0.00562235	-0.188999	0.26539	-0.159948	0	0	0.692405	0.0910644	0.324315	-0.491875	-0.240605	-0.110822	0.603908	1.5708	0	0	-0.156719	-0.0527857	-0.757728	0.263034	1.5708	0	0
